<svg width="76" height="76" viewBox="0 0 76 76" fill="none" xmlns="http://www.w3.org/2000/svg">
<path d="M9.20312 62.7846C3.46765 56.1306 0 47.4672 0 37.9938C0 17.0103 17.0132 0 38 0C58.9868 0 76 17.0103 76 37.9938C76 47.467 72.5323 56.1306 66.7969 62.7846C66.4169 63.2255 48.8842 52.1734 38 52.1734C27.1158 52.1734 9.58313 63.2256 9.20312 62.7846Z" fill="#1C47B8"/>
<path d="M11.0886 61.9715C9.95645 62.5545 9.27482 62.8802 9.20313 62.7971C7.69257 61.0449 6.34473 59.1589 5.17632 57.1622V21.6711C5.17635 21.4743 5.25457 21.2856 5.39375 21.1464C5.53293 21.0073 5.72169 20.9291 5.9185 20.9291H10.3464C10.5432 20.9291 10.732 21.0073 10.8711 21.1464C11.0103 21.2856 11.0885 21.4743 11.0886 21.6711V61.9715Z" fill="#415AB1"/>
<path d="M66.7969 5.19442V62.7846C59.8283 70.8693 49.5119 75.9875 38 75.9875C26.4881 75.9875 16.1717 70.8693 9.20312 62.7846V5.19442C9.20316 4.99761 9.28138 4.80887 9.42056 4.66971C9.55974 4.53056 9.7485 4.45238 9.94531 4.45238H66.0547C66.2515 4.45238 66.4403 4.53056 66.5794 4.66971C66.7186 4.80887 66.7968 4.99761 66.7969 5.19442Z" fill="#E9F3FE"/>
<path d="M40.0845 75.9314C39.3944 75.9687 38.6994 76 38 76C26.4881 76 16.1717 70.8817 9.20312 62.7971V5.20689C9.20316 5.01008 9.28138 4.82134 9.42056 4.68218C9.55974 4.54303 9.7485 4.46485 9.94531 4.46485H14.1142C13.9174 4.46485 13.7286 4.54303 13.5894 4.68218C13.4502 4.82134 13.372 5.01008 13.372 5.20689V62.7971C19.9172 70.3905 29.4157 75.3547 40.0845 75.9314Z" fill="#C8E2FD"/>
<path d="M45.4219 66.044C45.4219 70.1424 42.099 73.4647 38 73.4647C33.901 73.4647 30.5781 70.1424 30.5781 66.044C30.5781 61.9456 33.901 58.6233 38 58.6233C42.099 58.6233 45.4219 61.9456 45.4219 66.044Z" fill="#88B56C"/>
<path d="M43.3438 66.044C43.3438 68.9948 40.9512 71.3869 38 71.3869C35.0488 71.3869 32.6562 68.9948 32.6562 66.044C32.6562 63.0932 35.0488 60.7011 38 60.7011C40.9512 60.7011 43.3438 63.0932 43.3438 66.044Z" fill="#6E9E50"/>
<path d="M23.8984 35.2481C23.8985 34.9529 24.0158 34.6698 24.2246 34.461C24.4333 34.2523 24.7165 34.135 25.0117 34.135H50.9883C51.136 34.1326 51.2827 34.1596 51.4199 34.2144C51.557 34.2693 51.6819 34.3509 51.7872 34.4545C51.8925 34.5581 51.9762 34.6816 52.0332 34.8179C52.0903 34.9541 52.1197 35.1004 52.1197 35.2481C52.1197 35.3958 52.0903 35.5421 52.0332 35.6783C51.9762 35.8146 51.8925 35.9381 51.7872 36.0417C51.6819 36.1453 51.557 36.2269 51.4199 36.2818C51.2827 36.3367 51.136 36.3637 50.9883 36.3612H25.0117C24.7165 36.3612 24.4333 36.244 24.2246 36.0352C24.0158 35.8265 23.8985 35.5434 23.8984 35.2481ZM50.9883 38.4391H25.0117C24.864 38.4367 24.7173 38.4637 24.5801 38.5185C24.443 38.5734 24.3181 38.655 24.2128 38.7586C24.1075 38.8622 24.0238 38.9857 23.9667 39.122C23.9097 39.2582 23.8803 39.4045 23.8803 39.5522C23.8803 39.6999 23.9097 39.8462 23.9667 39.9824C24.0238 40.1187 24.1075 40.2422 24.2128 40.3458C24.3181 40.4494 24.443 40.531 24.5801 40.5859C24.7173 40.6407 24.864 40.6678 25.0117 40.6653H50.9883C51.136 40.6678 51.2827 40.6407 51.4199 40.5859C51.557 40.531 51.6819 40.4494 51.7872 40.3458C51.8925 40.2422 51.9762 40.1187 52.0332 39.9824C52.0903 39.8462 52.1197 39.6999 52.1197 39.5522C52.1197 39.4045 52.0903 39.2582 52.0332 39.122C51.9762 38.9857 51.8925 38.8622 51.7872 38.7586C51.6819 38.655 51.557 38.5734 51.4199 38.5185C51.2827 38.4637 51.136 38.4367 50.9883 38.4391ZM50.9883 42.8915H25.0117C24.864 42.889 24.7173 42.9161 24.5801 42.9709C24.443 43.0258 24.3181 43.1074 24.2128 43.211C24.1075 43.3146 24.0238 43.4381 23.9667 43.5744C23.9097 43.7106 23.8803 43.8569 23.8803 44.0046C23.8803 44.1523 23.9097 44.2986 23.9667 44.4348C24.0238 44.5711 24.1075 44.6946 24.2128 44.7982C24.3181 44.9018 24.443 44.9834 24.5801 45.0383C24.7173 45.0931 24.864 45.1201 25.0117 45.1177H50.9883C51.136 45.1201 51.2827 45.0931 51.4199 45.0383C51.557 44.9834 51.6819 44.9018 51.7872 44.7982C51.8925 44.6946 51.9762 44.5711 52.0332 44.4348C52.0903 44.2986 52.1197 44.1523 52.1197 44.0046C52.1197 43.8569 52.0903 43.7106 52.0332 43.5744C51.9762 43.4381 51.8925 43.3146 51.7872 43.211C51.6819 43.1074 51.557 43.0258 51.4199 42.9709C51.2827 42.9161 51.136 42.889 50.9883 42.8915ZM43.7148 46.8987H32.2852C32.1374 46.8963 31.9907 46.9233 31.8536 46.9781C31.7164 47.033 31.5915 47.1146 31.4862 47.2182C31.3809 47.3218 31.2973 47.4453 31.2402 47.5816C31.1831 47.7178 31.1537 47.8641 31.1537 48.0118C31.1537 48.1595 31.1831 48.3058 31.2402 48.442C31.2973 48.5783 31.3809 48.7018 31.4862 48.8054C31.5915 48.909 31.7164 48.9906 31.8536 49.0455C31.9907 49.1003 32.1374 49.1274 32.2852 49.1249H43.7148C43.8625 49.1274 44.0093 49.1003 44.1464 49.0455C44.2836 48.9906 44.4085 48.909 44.5138 48.8054C44.6191 48.7018 44.7027 48.5783 44.7598 48.442C44.8169 48.3058 44.8463 48.1595 44.8463 48.0118C44.8463 47.8641 44.8169 47.7178 44.7598 47.5816C44.7027 47.4453 44.6191 47.3218 44.5138 47.2182C44.4085 47.1146 44.2836 47.033 44.1464 46.9781C44.0093 46.9233 43.8625 46.8963 43.7148 46.8987ZM32.2852 16.4739H43.7148C43.8625 16.4763 44.0093 16.4493 44.1464 16.3944C44.2836 16.3396 44.4085 16.258 44.5138 16.1544C44.6191 16.0508 44.7027 15.9272 44.7598 15.791C44.8169 15.6547 44.8463 15.5085 44.8463 15.3608C44.8463 15.213 44.8169 15.0668 44.7598 14.9305C44.7027 14.7943 44.6191 14.6707 44.5138 14.5671C44.4085 14.4635 44.2836 14.3819 44.1464 14.3271C44.0093 14.2722 43.8625 14.2452 43.7148 14.2476H32.2852C32.1374 14.2452 31.9907 14.2722 31.8536 14.3271C31.7164 14.3819 31.5915 14.4635 31.4862 14.5671C31.3809 14.6707 31.2973 14.7943 31.2402 14.9305C31.1831 15.0668 31.1537 15.213 31.1537 15.3608C31.1537 15.5085 31.1831 15.6547 31.2402 15.791C31.2973 15.9272 31.3809 16.0508 31.4862 16.1544C31.5915 16.258 31.7164 16.3396 31.8536 16.3944C31.9907 16.4493 32.1374 16.4763 32.2852 16.4739Z" fill="#A7D0FC"/>
<path d="M52.1016 23.5977C52.1015 23.8929 51.9842 24.1761 51.7754 24.3848C51.5667 24.5936 51.2835 24.7108 50.9883 24.7108H25.0117C24.864 24.7132 24.7173 24.6862 24.5801 24.6314C24.443 24.5765 24.3181 24.4949 24.2128 24.3913C24.1075 24.2877 24.0238 24.1642 23.9667 24.0279C23.9097 23.8917 23.8803 23.7454 23.8803 23.5977C23.8803 23.45 23.9097 23.3037 23.9667 23.1675C24.0238 23.0312 24.1075 22.9077 24.2128 22.8041C24.3181 22.7005 24.443 22.6189 24.5801 22.564C24.7173 22.5092 24.864 22.4822 25.0117 22.4846H50.9883C51.2835 22.4846 51.5667 22.6018 51.7754 22.8106C51.9842 23.0193 52.1015 23.3025 52.1016 23.5977ZM42.2305 26.7144H33.7695C33.6218 26.712 33.4751 26.739 33.3379 26.7939C33.2008 26.8488 33.0759 26.9304 32.9706 27.034C32.8653 27.1376 32.7816 27.2611 32.7246 27.3973C32.6675 27.5336 32.6381 27.6798 32.6381 27.8276C32.6381 27.9753 32.6675 28.1216 32.7246 28.2578C32.7816 28.3941 32.8653 28.5176 32.9706 28.6212C33.0759 28.7248 33.2008 28.8064 33.3379 28.8613C33.4751 28.9161 33.6218 28.9431 33.7695 28.9407H42.2305C42.3782 28.9431 42.5249 28.9161 42.6621 28.8613C42.7992 28.8064 42.9241 28.7248 43.0294 28.6212C43.1347 28.5176 43.2183 28.3941 43.2754 28.2578C43.3325 28.1216 43.3619 27.9753 43.3619 27.8276C43.3619 27.6798 43.3325 27.5336 43.2754 27.3973C43.2183 27.2611 43.1347 27.1376 43.0294 27.034C42.9241 26.9304 42.7992 26.8488 42.6621 26.7939C42.5249 26.739 42.3782 26.712 42.2305 26.7144Z" fill="#85A6D3"/>
<path d="M42.5033 64.6977L38.7872 68.4131C38.5784 68.6218 38.2952 68.7391 38 68.7391C37.7048 68.7391 37.4216 68.6218 37.2128 68.4131L34.8353 66.0357C34.7319 65.9323 34.6499 65.8096 34.594 65.6746C34.538 65.5395 34.5092 65.3948 34.5092 65.2486C34.5092 65.1024 34.538 64.9577 34.594 64.8226C34.6499 64.6876 34.7319 64.5649 34.8353 64.4615C35.0441 64.2528 35.3273 64.1356 35.6225 64.1356C35.9177 64.1356 36.2009 64.2529 36.4096 64.4617L38 66.0519L40.9288 63.1235C41.1377 62.9148 41.4208 62.7976 41.716 62.7976C42.0112 62.7976 42.2943 62.9148 42.5032 63.1235C42.6066 63.2268 42.6886 63.3495 42.7446 63.4846C42.8005 63.6196 42.8294 63.7644 42.8294 63.9106C42.8294 64.0567 42.8006 64.2015 42.7446 64.3366C42.6887 64.4716 42.6067 64.5943 42.5033 64.6977Z" fill="#E9F3FE"/>
</svg>
