<svg width="70" height="70" viewBox="0 0 70 70" fill="none" xmlns="http://www.w3.org/2000/svg">
<path d="M34.8961 69.7922C53.3955 69.7922 68.3922 54.7955 68.3922 36.2961C68.3922 17.7967 53.3955 2.8 34.8961 2.8C16.3967 2.8 1.40002 17.7967 1.40002 36.2961C1.40002 54.7955 16.3967 69.7922 34.8961 69.7922Z" fill="#79C8E0"/>
<path d="M63.5714 53.9947C52.5183 72.0179 26.7972 75.2761 11.6306 60.5011C7.78075 45.2906 3.93102 30.0803 0.0806117 14.8699C-0.309037 13.3277 0.745065 11.7322 2.43491 11.3043C17.1817 7.5713 31.9288 3.83942 46.6757 0.107C48.3669 -0.32093 50.0527 0.581414 50.4437 2.1236C54.8188 19.4141 59.1955 36.7043 63.5714 53.9947Z" fill="#EAF2FF"/>
<path d="M42.9804 13.1212L11.8779 20.9932C11.6142 21.0599 11.3349 21.0191 11.1013 20.8799C10.8677 20.7406 10.6989 20.5143 10.6322 20.2506C10.5655 19.987 10.6063 19.7076 10.7455 19.474C10.8848 19.2404 11.1111 19.0717 11.3747 19.005L42.4773 11.133C42.6079 11.1 42.7436 11.093 42.8769 11.1124C43.0101 11.1318 43.1382 11.1773 43.2539 11.2463C43.3696 11.3152 43.4705 11.4063 43.551 11.5143C43.6315 11.6222 43.6899 11.745 43.723 11.8755C43.756 12.0061 43.763 12.1418 43.7436 12.2751C43.7241 12.4083 43.6786 12.5365 43.6097 12.6521C43.5407 12.7678 43.4497 12.8688 43.3417 12.9492C43.2337 13.0297 43.111 13.0881 42.9804 13.1212ZM44.8926 20.676L13.79 28.548C13.5264 28.6147 13.247 28.5739 13.0134 28.4347C12.8978 28.3657 12.7968 28.2747 12.7163 28.1667C12.6358 28.0587 12.5774 27.936 12.5444 27.8054C12.5113 27.6749 12.5043 27.5391 12.5238 27.4059C12.5432 27.2726 12.5887 27.1445 12.6577 27.0288C12.7969 26.7952 13.0233 26.6265 13.2869 26.5598L44.3895 18.6878C44.52 18.6548 44.6558 18.6478 44.789 18.6672C44.9223 18.6866 45.0504 18.7321 45.1661 18.8011C45.2817 18.87 45.3827 18.9611 45.4632 19.0691C45.5436 19.177 45.6021 19.2998 45.6351 19.4303C45.6681 19.5609 45.6751 19.6966 45.6557 19.8299C45.6363 19.9631 45.5908 20.0913 45.5218 20.2069C45.4529 20.3226 45.3618 20.4236 45.2538 20.504C45.1459 20.5845 45.0231 20.6429 44.8926 20.676ZM46.8969 28.5953L15.7943 36.4673C15.5307 36.534 15.2513 36.4932 15.0177 36.354C14.7841 36.2147 14.6154 35.9884 14.5487 35.7247C14.482 35.4611 14.5227 35.1817 14.662 34.9481C14.8012 34.7145 15.0275 34.5458 15.2912 34.4791L46.3938 26.6071C46.5243 26.5741 46.6601 26.5671 46.7933 26.5865C46.9266 26.6059 47.0547 26.6514 47.1704 26.7204C47.286 26.7893 47.387 26.8804 47.4675 26.9884C47.5479 27.0963 47.6064 27.2191 47.6394 27.3496C47.6724 27.4802 47.6794 27.6159 47.66 27.7492C47.6406 27.8824 47.5951 28.0106 47.5261 28.1262C47.4572 28.2419 47.3661 28.3429 47.2581 28.4233C47.1502 28.5038 47.0274 28.5622 46.8969 28.5953ZM48.5657 35.1891L17.4631 43.0611C17.1995 43.1278 16.9201 43.087 16.6865 42.9478C16.4529 42.8085 16.2842 42.5822 16.2175 42.3186C16.1507 42.0549 16.1915 41.7756 16.3307 41.5419C16.47 41.3083 16.6963 41.1396 16.96 41.0729L48.0625 33.2009C48.3262 33.1342 48.6055 33.1749 48.8391 33.3142C49.0728 33.4534 49.2415 33.6798 49.3082 33.9434C49.3749 34.2071 49.3342 34.4864 49.1949 34.72C49.0557 34.9536 48.8293 35.1224 48.5657 35.1891Z" fill="#76BEFF"/>
<path d="M33.2387 55.0047C34.5056 60.0106 31.4637 65.1145 26.4576 66.3815C21.4516 67.6484 16.3478 64.6064 15.0808 59.6003C13.8138 54.5943 16.8559 49.4905 21.8619 48.2236C26.8679 46.9566 31.9717 49.9986 33.2387 55.0047Z" fill="#36B990"/>
<path d="M23.594 62.3112C23.4635 62.3444 23.3277 62.3515 23.1944 62.3321C23.0611 62.3127 22.933 62.2671 22.8174 62.198L18.1671 59.4262C17.9335 59.2869 17.7647 59.0606 17.698 58.7969C17.6312 58.5333 17.672 58.2539 17.8112 58.0203C17.9505 57.7867 18.1768 57.6181 18.4404 57.5513C18.704 57.4846 18.9833 57.5253 19.2169 57.6645L22.9865 59.9115L27.8072 51.8236C27.9483 51.5939 28.1743 51.4289 28.4361 51.3645C28.698 51.3001 28.9746 51.3413 29.2063 51.4794C29.4379 51.6175 29.6058 51.8412 29.6737 52.1022C29.7415 52.3632 29.7039 52.6404 29.5689 52.8738L24.2232 61.8424C24.1543 61.9581 24.0633 62.0591 23.9553 62.1395C23.8473 62.22 23.7246 62.2783 23.594 62.3112Z" fill="white"/>
<path d="M51.2661 45.8585L37.0844 49.4479C36.9539 49.4809 36.8181 49.4879 36.6848 49.4685C36.5516 49.4491 36.4235 49.4036 36.3078 49.3346C36.1921 49.2657 36.0912 49.1746 36.0107 49.0666C35.9302 48.9587 35.8718 48.8359 35.8388 48.7054C35.8057 48.5748 35.7987 48.4391 35.8182 48.3058C35.8376 48.1726 35.8831 48.0444 35.952 47.9288C36.021 47.8131 36.1121 47.7121 36.22 47.6317C36.328 47.5512 36.4507 47.4928 36.5813 47.4597L50.763 43.8703C51.0266 43.8036 51.306 43.8443 51.5396 43.9836C51.7732 44.1228 51.9419 44.3492 52.0086 44.6128C52.0754 44.8765 52.0346 45.1558 51.8954 45.3894C51.7561 45.623 51.5298 45.7918 51.2661 45.8585ZM52.854 52.1321L38.6723 55.7214C38.5417 55.7544 38.4059 55.7614 38.2727 55.742C38.1394 55.7225 38.0113 55.677 37.8957 55.6081C37.78 55.5391 37.679 55.4481 37.5986 55.3401C37.5181 55.2322 37.4597 55.1094 37.4266 54.9788C37.3936 54.8483 37.3866 54.7125 37.406 54.5793C37.4255 54.446 37.4709 54.3179 37.5399 54.2022C37.6088 54.0866 37.6999 53.9856 37.8079 53.9051C37.9158 53.8247 38.0386 53.7662 38.1691 53.7332L52.3508 50.1438C52.4814 50.1108 52.6172 50.1038 52.7504 50.1232C52.8837 50.1426 53.0118 50.1881 53.1275 50.2571C53.2432 50.326 53.3441 50.4171 53.4246 50.5251C53.5051 50.6331 53.5635 50.7558 53.5966 50.8864C53.6296 51.0169 53.6366 51.1527 53.6171 51.286C53.5977 51.4192 53.5522 51.5474 53.4833 51.663C53.4143 51.7787 53.3232 51.8797 53.2153 51.9601C53.1073 52.0406 52.9845 52.0991 52.854 52.1321Z" fill="#76BEFF"/>
<path d="M68.0384 11.4103C67.1003 12.3508 65.903 12.99 64.5996 13.2461C62.3085 13.6947 60.1815 14.7253 58.3583 16.1677L53.8 11.6095C53.9995 11.3557 54.1907 11.0955 54.3733 10.8294C55.516 9.18011 56.3367 7.32101 56.7351 5.34105C56.9978 4.03712 57.6445 2.84158 58.5922 1.90818C61.2392 -0.707797 65.6407 -0.621801 68.1871 2.09084C68.6158 2.5476 68.9786 3.06204 69.265 3.61921C70.5557 6.13771 70.1468 9.30179 68.0384 11.4103Z" fill="#A54B0E"/>
<path d="M67.3858 9.40434C65.6909 11.0992 63.4747 11.1543 61.3698 12.0121C59.6321 12.7202 57.795 14.251 56.0836 12.5396L54.3734 10.8294C55.5156 9.18053 56.3391 7.3098 56.7352 5.34105C57.1374 3.3481 58.4652 1.60139 60.2884 0.698085C63.5293 -0.90754 67.6062 0.393065 69.2652 3.61922C69.587 5.66398 68.9606 7.82947 67.3858 9.40434Z" fill="#BF6015"/>
<path d="M59.007 20.055L58.9973 20.0647L49.9099 10.9773L49.9196 10.9676C50.1584 10.7282 50.4477 10.5452 50.7664 10.432C51.0142 10.3429 51.2755 10.2974 51.5389 10.2977C52.1247 10.2977 52.7105 10.52 53.1582 10.9676L59.007 16.8164C59.6537 17.4631 59.8336 18.4008 59.5435 19.2091C59.4293 19.5273 59.2461 19.8161 59.007 20.055Z" fill="#6D2929"/>
<path d="M59.5435 19.2091L50.7664 10.432C51.0142 10.3429 51.2756 10.2974 51.5389 10.2977C52.1247 10.2977 52.7106 10.52 53.1582 10.9676L59.007 16.8164C59.6537 17.4631 59.8335 18.4008 59.5435 19.2091Z" fill="#844242"/>
<path d="M56.856 26.7497L56.1068 27.4989C55.9505 27.6559 55.7679 27.7842 55.5673 27.8779C54.8587 28.2115 53.9867 28.0857 53.3999 27.4989L42.4756 16.5747C41.8888 15.9879 41.7632 15.1159 42.0967 14.4073C42.1904 14.2067 42.3187 14.0241 42.4756 13.8678L43.2249 13.1186L56.856 26.7497Z" fill="#4D5961"/>
<path d="M56.856 26.7497L56.1068 27.4989C55.9506 27.6559 55.7679 27.7842 55.5673 27.8779L42.0967 14.4073C42.1905 14.2067 42.3187 14.0241 42.4757 13.8678L43.2249 13.1186L56.856 26.7497Z" fill="#454545"/>
<path d="M59.6064 28.3497C59.0611 28.8021 58.514 28.8021 57.9687 28.3497L41.6248 12.0058C41.0438 11.4248 41.2072 10.8418 41.6538 10.3431C42.228 9.70499 43.2703 9.2061 43.8164 9.03315C45.7316 8.42502 47.8797 8.94715 49.3008 10.3682L59.6064 20.6738C60.0271 21.0936 60.3757 21.5799 60.6379 22.1133C61.6365 24.1404 61.2933 26.6628 59.6064 28.3497Z" fill="#D88521"/>
<path d="M59.0505 26.1021C58.5053 26.5545 57.9581 26.5545 57.4129 26.1021L41.6539 10.3431C42.2281 9.70499 43.2703 9.2061 43.8165 9.03315C45.7316 8.42502 47.8798 8.94715 49.3008 10.3682L59.6064 20.6738C60.0272 21.0936 60.3757 21.5799 60.638 22.1133C60.6776 23.5527 60.1488 25.0038 59.0505 26.1021Z" fill="#FEA832"/>
</svg>
