<svg width="63" height="70" viewBox="0 0 63 70" fill="none" xmlns="http://www.w3.org/2000/svg">
<path d="M57.3442 9.70703V52.5L17.9733 64.668V8.75H33.2804L37.6595 10.1172L42.0386 8.75H56.3872C56.9163 8.75 57.3442 9.17793 57.3442 9.70703Z" fill="#EDBA94"/>
<path d="M30.1842 10.9375C30.1842 10.1932 30.1247 9.46258 30.0104 8.75H17.974V24.6058C24.834 23.836 30.1842 17.9998 30.1842 10.9375Z" fill="#E5A87F"/>
<path d="M17.9739 8.75H20.7908V52.5H17.9739V8.75Z" fill="#E5A87F"/>
<path d="M40.6826 19.806L38.0584 18.6022C37.9332 18.5448 37.7971 18.5151 37.6593 18.5151C37.5216 18.5151 37.3855 18.5448 37.2603 18.6022L34.6361 19.806C34.0021 20.0968 33.28 19.6336 33.28 18.9362V8.75H42.0386V18.9362C42.0387 19.6336 41.3166 20.0968 40.6826 19.806Z" fill="#FD6930"/>
<path d="M32.242 32.6319L28.9677 29.3576C28.8788 29.2687 28.7734 29.1982 28.6572 29.1501C28.5411 29.102 28.4167 29.0773 28.291 29.0773C28.1653 29.0773 28.0409 29.102 27.9248 29.1501C27.8087 29.1982 27.7032 29.2687 27.6143 29.3576L24.3401 32.6319C23.7371 33.2348 24.1641 34.2657 25.0168 34.2657H25.1466C25.4004 34.2657 25.6438 34.3665 25.8233 34.546C26.0028 34.7255 26.1036 34.9689 26.1036 35.2227V42.793C26.1036 43.0468 26.2044 43.2902 26.3839 43.4697C26.5634 43.6492 26.8068 43.75 27.0606 43.75H29.5216C29.7754 43.75 30.0188 43.6492 30.1983 43.4697C30.3778 43.2902 30.4786 43.0468 30.4786 42.793V35.2227C30.4786 34.9689 30.5794 34.7255 30.7589 34.546C30.9384 34.3665 31.1818 34.2657 31.4356 34.2657H31.5654C32.4179 34.2657 32.8449 33.2348 32.242 32.6319Z" fill="#F1F6F7"/>
<path d="M52.043 43.7984H45.207C44.9532 43.7984 44.7098 43.6976 44.5303 43.5181C44.3508 43.3386 44.25 43.0952 44.25 42.8414V40.2835C44.25 40.0297 44.3508 39.7863 44.5303 39.6068C44.7098 39.4273 44.9532 39.3265 45.207 39.3265H52.043C52.2968 39.3265 52.5402 39.4273 52.7197 39.6068C52.8992 39.7863 53 40.0297 53 40.2835V42.8414C53 43.0952 52.8992 43.3386 52.7197 43.5181C52.5402 43.6976 52.2968 43.7984 52.043 43.7984ZM53 36.0563H44.2499C43.9697 36.0563 43.701 35.945 43.5029 35.7469C43.3049 35.5488 43.1936 35.2802 43.1936 35C43.1936 34.7199 43.3049 34.4512 43.5029 34.2531C43.701 34.055 43.9697 33.9437 44.2499 33.9437H53C53.1387 33.9437 53.2761 33.971 53.4042 34.0241C53.5324 34.0772 53.6488 34.155 53.7469 34.2531C53.845 34.3512 53.9228 34.4676 53.9759 34.5958C54.029 34.7239 54.0563 34.8613 54.0563 35C54.0563 35.1387 54.029 35.2761 53.9759 35.4043C53.9228 35.5324 53.845 35.6489 53.7469 35.747C53.6488 35.8451 53.5324 35.9229 53.4042 35.9759C53.2761 36.029 53.1387 36.0563 53 36.0563ZM45.2419 50.8074C44.3997 49.3514 42.8261 48.3684 41.0268 48.3684H34.7651L31.7669 47.209C30.0223 46.5335 28.1675 46.1877 26.2968 46.1891C22.9157 46.1891 20.1417 46.8166 17.9733 47.6205V64.668L57.3442 52.5V43.8184L45.2419 50.8074Z" fill="#E5A87F"/>
<path d="M13.625 52.5C13.625 52.5 17.8209 48.2401 26.2971 48.2401C27.9148 48.2401 29.5186 48.5393 31.0275 49.1225L34.3831 50.4194H41.0266C42.5798 50.4194 43.8389 51.6786 43.8389 53.2317C43.8389 53.2317 43.796 53.7951 43.7162 54.0557L43.7169 54.056L49.055 50.9742L58.7959 45.3488C60.141 44.5728 61.8607 45.0347 62.6368 46.3798C63.3778 47.6582 62.889 49.4825 61.6086 50.2206L43.8027 64.1376C42.5707 65.1017 41.0514 65.6253 39.4871 65.625H13.625L12.2578 63.3691V55.0497L13.625 52.5Z" fill="#FFD5C8"/>
<path d="M27.4832 48.2938C27.0888 48.2581 26.693 48.2401 26.2971 48.2401C17.8209 48.2401 13.625 52.5 13.625 52.5L12.2578 55.0496V63.5058L13.625 65.625H16.442V52.9246C16.442 52.6445 16.5636 52.3782 16.7773 52.1969C17.8339 51.3007 21.3897 48.7004 27.4832 48.2938ZM42.7257 53.7466C42.4986 54.4888 41.8235 54.9876 41.0461 54.9876H28.2912C28.0111 54.9876 27.7424 55.0989 27.5443 55.297C27.3462 55.4951 27.2349 55.7637 27.2349 56.0439C27.2349 56.324 27.3462 56.5927 27.5443 56.7908C27.7424 56.9889 28.0111 57.1002 28.2912 57.1002H41.0461C41.7111 57.1002 42.3411 56.9325 42.8936 56.6339C42.8935 56.6345 59.3656 46.7259 61.6293 45.3644C60.7848 44.867 59.7051 44.824 58.7958 45.3488L49.0548 50.9742L43.7168 54.056L43.7161 54.0557C43.7958 53.7951 43.8387 53.2317 43.8387 53.2317C43.8387 53.1547 43.8333 53.0791 43.8273 53.0037C43.3412 52.961 42.8743 53.261 42.7257 53.7466Z" fill="#FFBCAD"/>
<path d="M16.4298 21.875C22.4704 21.875 27.3673 16.9781 27.3673 10.9375C27.3673 4.89689 22.4704 0 16.4298 0C10.3892 0 5.49231 4.89689 5.49231 10.9375C5.49231 16.9781 10.3892 21.875 16.4298 21.875Z" fill="#ADE194"/>
<path d="M8.30926 10.9375C8.30926 5.37414 12.4629 0.780938 17.8383 0.0898244C17.3712 0.0299202 16.9007 -8.22923e-05 16.4298 1.69519e-07C10.3892 1.69519e-07 5.49231 4.89686 5.49231 10.9375C5.49231 16.9781 10.3892 21.875 16.4298 21.875C16.9071 21.875 17.3771 21.8444 17.8383 21.7852C12.4629 21.0941 8.30926 16.5009 8.30926 10.9375Z" fill="#7DCE6F"/>
<path d="M14.31 16.3688C14.157 16.3688 14.0059 16.3356 13.867 16.2715C13.7282 16.2073 13.6049 16.1138 13.5058 15.9973L10.2192 12.1386C10.0425 11.9247 9.95706 11.6499 9.9813 11.3735C10.0055 11.0971 10.1375 10.8414 10.3487 10.6615C10.5599 10.4816 10.8334 10.3921 11.1101 10.4121C11.3868 10.4322 11.6445 10.5603 11.8276 10.7688L14.2817 13.6501L19.9776 6.48226C20.0639 6.37363 20.1708 6.28307 20.2921 6.21574C20.4134 6.14842 20.5467 6.10565 20.6846 6.08988C20.8224 6.07411 20.962 6.08565 21.0954 6.12384C21.2287 6.16203 21.3533 6.22612 21.4619 6.31245C21.5705 6.39875 21.661 6.5056 21.7283 6.6269C21.7956 6.7482 21.8384 6.88157 21.8542 7.01939C21.8699 7.15722 21.8584 7.2968 21.8202 7.43016C21.782 7.56353 21.718 7.68807 21.6317 7.79667L15.1368 15.9699C15.0398 16.0919 14.9169 16.191 14.777 16.26C14.6371 16.329 14.4837 16.3662 14.3277 16.3689L14.31 16.3688ZM9.25 70H12.6877C12.9415 70 13.1849 69.8992 13.3644 69.7197C13.5439 69.5402 13.6447 69.2968 13.6447 69.043V49.082C13.6447 48.8282 13.5439 48.5848 13.3644 48.4053C13.1849 48.2258 12.9415 48.125 12.6877 48.125H7.88281V65.625L9.25 70Z" fill="#F1F6F7"/>
<path d="M1.45703 45.9375H8.29297C8.54679 45.9375 8.79021 46.0383 8.96969 46.2178C9.14917 46.3973 9.25 46.6407 9.25 46.8945V70H1.45703C1.20321 70 0.959786 69.8992 0.780308 69.7197C0.60083 69.5402 0.5 69.2968 0.5 69.043V46.8945C0.5 46.6407 0.60083 46.3973 0.780308 46.2178C0.959786 46.0383 1.20321 45.9375 1.45703 45.9375Z" fill="#89AAD6"/>
<path d="M0.5 46.8945V69.043C0.5 69.2968 0.60083 69.5402 0.780308 69.7197C0.959786 69.8992 1.20321 70 1.45703 70H3.31695V45.9375H1.45703C1.20321 45.9375 0.959786 46.0383 0.780308 46.2178C0.60083 46.3973 0.5 46.6407 0.5 46.8945Z" fill="#6F99D3"/>
<path d="M4.92806 53.5563C4.71914 53.5563 4.51492 53.4944 4.34121 53.3783C4.16751 53.2622 4.03212 53.0972 3.95217 52.9042C3.87222 52.7112 3.8513 52.4988 3.89206 52.2939C3.93282 52.089 4.03342 51.9008 4.18115 51.7531C4.32887 51.6054 4.51708 51.5048 4.72198 51.464C4.92688 51.4233 5.13927 51.4442 5.33228 51.5241C5.52529 51.6041 5.69026 51.7395 5.80633 51.9132C5.92239 52.0869 5.98434 52.2911 5.98434 52.5C5.98436 52.6387 5.95705 52.7761 5.90398 52.9043C5.8509 53.0324 5.77309 53.1489 5.675 53.247C5.57692 53.3451 5.46046 53.4229 5.3323 53.4759C5.20414 53.529 5.06677 53.5563 4.92806 53.5563Z" fill="#F1F6F7"/>
</svg>
