<svg width="70" height="70" viewBox="0 0 70 70" fill="none" xmlns="http://www.w3.org/2000/svg">
<path d="M31.4658 69.729C48.8439 69.729 62.9316 55.6867 62.9316 38.3645C62.9316 21.0424 48.8439 7 31.4658 7C14.0877 7 0 21.0424 0 38.3645C0 55.6867 14.0877 69.729 31.4658 69.729Z" fill="#E3F5FF"/>
<path d="M35.0612 27.0965H22.8737C22.3789 27.0965 21.9777 26.6994 21.9777 26.2093C21.9777 25.7192 22.3788 25.3221 22.8737 25.3221H35.0612C35.5561 25.3221 35.9572 25.7192 35.9572 26.2093C35.9572 26.6994 35.5561 27.0965 35.0612 27.0965ZM16.9037 27.0965H5.7627C5.26785 27.0965 4.8667 26.6994 4.8667 26.2093C4.8667 25.7192 5.26773 25.3221 5.7627 25.3221H16.9037C17.3985 25.3221 17.7997 25.7192 17.7997 26.2093C17.7997 26.6994 17.3985 27.0965 16.9037 27.0965ZM17.7672 33.3061H9.34538C9.22772 33.3061 9.1112 33.2832 9.00248 33.2386C8.89377 33.194 8.79499 33.1287 8.71178 33.0463C8.62858 32.9639 8.56258 32.8661 8.51756 32.7584C8.47254 32.6508 8.44937 32.5354 8.44939 32.4189C8.44937 32.3024 8.47254 32.1871 8.51756 32.0794C8.56258 31.9718 8.62858 31.874 8.71178 31.7916C8.79499 31.7092 8.89377 31.6439 9.00248 31.5993C9.1112 31.5547 9.22772 31.5318 9.34538 31.5318H17.7672C18.0048 31.5318 18.2327 31.6252 18.4007 31.7916C18.5688 31.958 18.6632 32.1836 18.6632 32.4189C18.6632 32.6542 18.5688 32.8799 18.4007 33.0462C18.2327 33.2126 18.0048 33.3061 17.7672 33.3061ZM12.0646 45.7223H5.7627C5.26785 45.7223 4.8667 45.3252 4.8667 44.8352C4.8667 44.3451 5.26773 43.948 5.7627 43.948H12.0646C12.5594 43.948 12.9606 44.3451 12.9606 44.8352C12.9606 45.3252 12.5594 45.7223 12.0646 45.7223ZM18.9896 51.9321H8.65797C8.5403 51.9321 8.42378 51.9091 8.31507 51.8646C8.20635 51.82 8.10757 51.7546 8.02437 51.6723C7.94116 51.5899 7.87517 51.4921 7.83014 51.3844C7.78512 51.2768 7.76196 51.1614 7.76197 51.0449C7.76196 50.9284 7.78512 50.813 7.83014 50.7054C7.87517 50.5977 7.94116 50.4999 8.02437 50.4176C8.10757 50.3352 8.20635 50.2698 8.31507 50.2253C8.42378 50.1807 8.5403 50.1577 8.65797 50.1578H18.9896C19.1072 50.1577 19.2238 50.1807 19.3325 50.2253C19.4412 50.2698 19.54 50.3352 19.6232 50.4176C19.7064 50.4999 19.7724 50.5977 19.8174 50.7054C19.8624 50.813 19.8856 50.9284 19.8856 51.0449C19.8856 51.1614 19.8624 51.2768 19.8174 51.3844C19.7724 51.4921 19.7064 51.5899 19.6232 51.6723C19.54 51.7546 19.4412 51.82 19.3325 51.8646C19.2238 51.9091 19.1072 51.9321 18.9896 51.9321ZM15.6473 58.1418H11.2586C11.1409 58.1418 11.0244 58.1189 10.9157 58.0743C10.807 58.0297 10.7082 57.9644 10.625 57.882C10.5418 57.7996 10.4758 57.7018 10.4308 57.5942C10.3858 57.4865 10.3626 57.3712 10.3626 57.2547C10.3626 57.1382 10.3858 57.0228 10.4308 56.9151C10.4758 56.8075 10.5418 56.7097 10.625 56.6273C10.7082 56.5449 10.807 56.4796 10.9157 56.435C11.0244 56.3904 11.1409 56.3675 11.2586 56.3675H15.6473C15.8849 56.3675 16.1128 56.461 16.2808 56.6273C16.4488 56.7937 16.5432 57.0194 16.5432 57.2547C16.5432 57.4899 16.4488 57.7156 16.2808 57.882C16.1128 58.0483 15.8849 58.1418 15.6473 58.1418ZM29.7827 64.3516H16.5447C16.427 64.3516 16.3105 64.3286 16.2018 64.2841C16.093 64.2395 15.9943 64.1741 15.9111 64.0918C15.8279 64.0094 15.7619 63.9116 15.7168 63.8039C15.6718 63.6963 15.6486 63.5809 15.6487 63.4644C15.6486 63.3479 15.6718 63.2325 15.7168 63.1249C15.7619 63.0172 15.8279 62.9194 15.9111 62.8371C15.9943 62.7547 16.093 62.6893 16.2018 62.6447C16.3105 62.6002 16.427 62.5772 16.5447 62.5773H29.7827C29.9004 62.5772 30.0169 62.6002 30.1256 62.6447C30.2343 62.6893 30.3331 62.7547 30.4163 62.8371C30.4995 62.9194 30.5655 63.0172 30.6106 63.1249C30.6556 63.2325 30.6787 63.3479 30.6787 63.4644C30.6787 63.5809 30.6556 63.6963 30.6106 63.8039C30.5655 63.9116 30.4995 64.0094 30.4163 64.0918C30.3331 64.1741 30.2343 64.2395 30.1256 64.2841C30.0169 64.3286 29.9004 64.3516 29.7827 64.3516ZM20.0833 39.5158H13.1211C12.6263 39.5158 12.2251 39.1188 12.2251 38.6287C12.2251 38.1386 12.6262 37.7415 13.1211 37.7415H20.0833C20.5782 37.7415 20.9793 38.1386 20.9793 38.6287C20.9793 39.1188 20.5782 39.5158 20.0833 39.5158Z" fill="#BBBBBB"/>
<path fill-rule="evenodd" clip-rule="evenodd" d="M47.218 16.5191L44.3734 24.5328C45.8431 24.7139 47.3161 25.039 48.7756 25.5151C50.2351 25.9912 51.6167 26.5982 52.9069 27.3157L55.7515 19.302L47.218 16.5191Z" fill="#A7B9D0"/>
<path fill-rule="evenodd" clip-rule="evenodd" d="M44.834 12.234L43.7809 15.3992C43.554 16.0832 43.9299 16.8276 44.6207 17.0522L46.6458 17.7094L55.1759 20.4924L57.1975 21.153C57.8883 21.3777 58.64 21.0021 58.867 20.3181L59.9201 17.1529C60.1469 16.4689 59.7677 15.7245 59.0769 15.4999L46.5035 11.3991C45.8126 11.1744 45.0608 11.55 44.834 12.234Z" fill="#578BB5"/>
<path fill-rule="evenodd" clip-rule="evenodd" d="M57.1974 21.1529C57.8882 21.3776 58.6399 21.002 58.8668 20.3179L59.92 17.1528C60.1468 16.4687 59.7675 15.7244 59.0768 15.4998L55.9614 14.4838C56.6523 14.7085 57.0315 15.4528 56.8046 16.1368L55.7514 19.302C55.5246 19.986 54.7728 20.3615 54.082 20.1369H54.0888L55.1758 20.4924L57.1974 21.1529Z" fill="#396484"/>
<path fill-rule="evenodd" clip-rule="evenodd" d="M34.6987 67.8368C46.8589 71.8001 59.9606 65.255 63.9632 53.2177C67.4884 42.6255 62.7916 31.3091 53.3302 26.0417C52.04 25.3241 50.6584 24.7172 49.1988 24.2411C47.7393 23.765 46.2663 23.4398 44.7967 23.2588C39.6663 22.6251 34.5836 23.7315 30.2829 26.2094C25.559 28.932 21.7799 33.3143 19.9377 38.8602C15.9318 50.8973 22.5418 63.8735 34.6987 67.8368Z" fill="#578BB5"/>
<path fill-rule="evenodd" clip-rule="evenodd" d="M47.6006 29.0526C38.1257 25.9612 27.916 31.0644 24.7938 40.4461C21.675 49.8278 26.8256 59.9371 36.3005 63.0252C45.7754 66.1167 55.9851 61.0168 59.1073 51.6351L59.1174 51.6015C62.2159 42.2299 57.0653 32.1373 47.6006 29.0526Z" fill="#EFF6FF"/>
<path fill-rule="evenodd" clip-rule="evenodd" d="M47.6006 29.0526L42.8936 43.2022C42.3483 44.8385 43.3982 46.3808 44.7933 46.9308L59.1174 51.6015C62.2159 42.2299 57.0653 32.1374 47.6006 29.0526Z" fill="#EB5468"/>
<path fill-rule="evenodd" clip-rule="evenodd" d="M59.1174 51.6015C61.8333 43.3867 58.2099 34.6186 50.9022 30.5011C52.1856 34.2933 52.8934 38.4644 52.8934 42.8435C52.8934 45.09 52.7072 47.2829 52.3516 49.3953L59.1174 51.6015Z" fill="#E5384F"/>
<path fill-rule="evenodd" clip-rule="evenodd" d="M63.9632 53.2177C67.4883 42.6255 62.7915 31.3092 53.3301 26.0417C52.382 25.5119 51.383 25.0458 50.34 24.6469C49.9629 24.5026 49.5824 24.3673 49.1988 24.2412C48.7483 24.0938 48.2932 23.9607 47.8341 23.8421C49.0599 25.8807 50.0961 28.1172 50.9021 30.5011C58.2097 34.6186 61.833 43.3867 59.1173 51.6015C59.1134 51.6126 59.11 51.6238 59.1071 51.6351C57.1668 57.4626 52.4937 61.6371 46.9605 63.223C45.4739 65.4293 43.7536 67.3741 41.8438 68.9935C51.6201 69.0405 60.7394 62.9111 63.9632 53.2177Z" fill="#386485"/>
<path fill-rule="evenodd" clip-rule="evenodd" d="M46.9605 63.223C52.4937 61.637 57.1669 57.4626 59.1072 51.6351L59.1173 51.6015L52.3514 49.3953C51.7216 53.1473 50.5634 56.6512 48.9786 59.7795C48.3658 60.9866 47.6919 62.1367 46.9605 63.223ZM53.3302 26.0416L55.1757 20.4924L54.082 20.1369L52.0603 19.4763L50.34 24.6467C51.383 25.0458 52.382 25.5119 53.3302 26.0416Z" fill="#8B9CAA"/>
<path d="M36.3208 63.8522C36.2255 63.8521 36.1308 63.837 36.0403 63.8073C35.9286 63.7708 35.8252 63.713 35.736 63.6369C35.6468 63.5609 35.5737 63.4683 35.5207 63.3642C35.4677 63.2602 35.436 63.1469 35.4272 63.0307C35.4185 62.9145 35.433 62.7978 35.4698 62.6872L36.4349 59.7868C36.4716 59.6761 36.5301 59.5736 36.6068 59.4853C36.6836 59.397 36.7772 59.3246 36.8823 59.2721C36.9873 59.2196 37.1018 59.1882 37.2192 59.1796C37.3365 59.1709 37.4544 59.1853 37.5662 59.2219C37.6779 59.2583 37.7813 59.3162 37.8705 59.3922C37.9597 59.4682 38.0328 59.5609 38.0858 59.6649C38.1388 59.7689 38.1705 59.8823 38.1793 59.9984C38.188 60.1146 38.1736 60.2313 38.1367 60.342L37.1716 63.2424C37.1126 63.4197 36.9987 63.5741 36.8459 63.6836C36.6931 63.7931 36.5094 63.8521 36.3208 63.8522ZM27.7637 42.2656C27.6707 42.2656 27.576 42.2512 27.4828 42.2207L24.5571 41.265C24.4453 41.2285 24.3419 41.1706 24.2528 41.0945C24.1637 41.0185 24.0906 40.9258 24.0376 40.8217C23.9847 40.7177 23.953 40.6043 23.9443 40.4881C23.9356 40.372 23.9501 40.2552 23.987 40.1446C24.0238 40.0339 24.0822 39.9315 24.159 39.8432C24.2358 39.7549 24.3295 39.6825 24.4346 39.6301C24.5397 39.5777 24.6542 39.5463 24.7715 39.5377C24.8889 39.5291 25.0068 39.5436 25.1185 39.5802L28.0443 40.5359C28.156 40.5723 28.2594 40.6303 28.3485 40.7063C28.4377 40.7824 28.5108 40.8751 28.5637 40.9791C28.6167 41.0831 28.6484 41.1965 28.6571 41.3127C28.6657 41.4289 28.6512 41.5456 28.6143 41.6562C28.5553 41.8335 28.4413 41.9878 28.2886 42.0972C28.1358 42.2066 27.9522 42.2655 27.7637 42.2656ZM35.2311 33.6818C35.0652 33.6819 34.9026 33.6365 34.7613 33.5505C34.62 33.4645 34.5056 33.3413 34.4308 33.1948L33.0389 30.4687C32.9344 30.2591 32.9177 30.017 32.9924 29.7952C33.0672 29.5735 33.2274 29.3899 33.4381 29.2844C33.6489 29.1789 33.8932 29.1601 34.1179 29.2319C34.3426 29.3038 34.5295 29.4607 34.6381 29.6683L36.03 32.3943C36.099 32.5295 36.1319 32.68 36.1256 32.8314C36.1193 32.9827 36.0739 33.13 35.9938 33.2591C35.9137 33.3882 35.8016 33.4948 35.668 33.5688C35.5345 33.6428 35.3841 33.6817 35.2311 33.6818ZM50.0834 62.8328C49.9174 62.833 49.7546 62.7874 49.6132 62.7013C49.4719 62.6151 49.3574 62.4918 49.2827 62.345L47.8944 59.6189C47.8414 59.5149 47.8096 59.4016 47.8009 59.2854C47.7921 59.1692 47.8066 59.0525 47.8434 58.9419C47.8802 58.8312 47.9387 58.7288 48.0155 58.6406C48.0923 58.5523 48.1859 58.4799 48.2909 58.4275C48.396 58.375 48.5104 58.3435 48.6278 58.3349C48.7451 58.3262 48.863 58.3405 48.9748 58.377C49.0865 58.4134 49.1899 58.4713 49.279 58.5474C49.3682 58.6234 49.4413 58.7161 49.4943 58.8201L50.8826 61.5462C50.9356 61.6502 50.9674 61.7635 50.9762 61.8797C50.9849 61.9958 50.9705 62.1126 50.9336 62.2232C50.8968 62.3339 50.8383 62.4362 50.7615 62.5245C50.6847 62.6128 50.5911 62.6852 50.4861 62.7376C50.3612 62.8002 50.2233 62.8328 50.0834 62.8328ZM25.8644 54.9366C25.6984 54.9368 25.5357 54.8912 25.3943 54.8051C25.2529 54.7189 25.1385 54.5956 25.0638 54.4488C25.0108 54.3448 24.979 54.2314 24.9703 54.1153C24.9615 53.9991 24.976 53.8824 25.0128 53.7717C25.0496 53.6611 25.1081 53.5587 25.1849 53.4704C25.2617 53.3822 25.3553 53.3098 25.4603 53.2573L28.2135 51.8825C28.3186 51.83 28.433 51.7985 28.5504 51.7898C28.6677 51.7811 28.7856 51.7954 28.8974 51.8319C29.0092 51.8684 29.1126 51.9263 29.2017 52.0024C29.2908 52.0784 29.364 52.1711 29.4169 52.2752C29.4699 52.3792 29.5016 52.4925 29.5104 52.6087C29.5191 52.7249 29.5047 52.8416 29.4679 52.9522C29.431 53.0629 29.3726 53.1653 29.2958 53.2535C29.219 53.3418 29.1254 53.4142 29.0203 53.4666L26.2671 54.8414C26.1423 54.904 26.0044 54.9366 25.8644 54.9366ZM39.5171 44.9847C39.2938 44.9849 39.0785 44.9024 38.9137 44.7532L32.4086 38.8821C32.2355 38.7229 32.1329 38.5025 32.1231 38.2689C32.1132 38.0352 32.197 37.8072 32.3561 37.6344C32.5152 37.4615 32.7368 37.3579 32.9727 37.346C33.2085 37.3341 33.4396 37.4149 33.6157 37.5708L40.1208 43.442C40.2544 43.5625 40.348 43.7203 40.3893 43.8945C40.4307 44.0687 40.4179 44.2512 40.3526 44.4181C40.2873 44.5849 40.1726 44.7283 40.0234 44.8295C39.8743 44.9306 39.6978 44.9847 39.5171 44.9847ZM42.723 53.1862C42.5036 53.1859 42.2919 53.1059 42.1281 52.9614C41.9643 52.8168 41.8597 52.6178 41.8343 52.402L41.4415 49.0725C41.4278 48.9568 41.4373 48.8395 41.4694 48.7274C41.5015 48.6154 41.5556 48.5107 41.6286 48.4193C41.7016 48.3279 41.792 48.2517 41.8948 48.1949C41.9975 48.1381 42.1106 48.102 42.2274 48.0885C42.7171 48.0324 43.1638 48.3798 43.2212 48.8666L43.614 52.1962C43.6287 52.3206 43.6166 52.4467 43.5786 52.5662C43.5405 52.6857 43.4772 52.7958 43.3931 52.8893C43.3089 52.9829 43.2056 53.0577 43.0901 53.1089C42.9746 53.16 42.8495 53.1864 42.723 53.1862Z" fill="#375E7D"/>
<path d="M41.9719 64.8202C39.9758 64.8202 37.971 64.5042 36.02 63.8678C26.0922 60.6321 20.6742 50.0008 23.9428 40.169C25.5278 35.4059 28.8905 31.5389 33.4112 29.2801C37.9328 27.0209 43.0716 26.6411 47.881 28.2103C57.7892 31.4397 63.2116 42.0504 59.9725 51.867L59.9655 51.8902L59.9583 51.9129C58.3734 56.6754 55.0107 60.5419 50.4898 62.7998C47.8024 64.1417 44.8966 64.8202 41.9719 64.8202ZM41.933 29.033C39.2838 29.033 36.6527 29.6477 34.2186 30.8638C30.1249 32.9092 27.0801 36.4109 25.6447 40.7237C22.6852 49.6262 27.5909 59.2526 36.5805 62.1825C40.9359 63.6036 45.5889 63.2601 49.6826 61.2155C53.7728 59.1727 56.816 55.676 58.2528 51.3684L58.2593 51.3466L58.2659 51.3257C61.2056 42.434 56.2955 32.8205 47.3205 29.8952L47.3201 29.8951C45.5545 29.319 43.7395 29.033 41.933 29.033Z" fill="#B5C2E4"/>
<path fill-rule="evenodd" clip-rule="evenodd" d="M42.8936 43.2022C41.3291 42.6926 39.6427 43.5341 39.128 45.0833C38.6132 46.6323 39.4632 48.3022 41.0277 48.8119C42.5921 49.3215 44.2785 48.4799 44.7933 46.9308C45.308 45.3818 44.458 43.7119 42.8936 43.2022Z" fill="#FFE07D"/>
<path fill-rule="evenodd" clip-rule="evenodd" d="M44.7932 46.9308C45.308 45.3817 44.458 43.7119 42.8935 43.2022C42.5052 43.0755 42.0947 43.0292 41.6875 43.0661C41.2804 43.103 40.8852 43.2224 40.5266 43.4168C41.9725 43.9934 42.7378 45.5928 42.2434 47.0816C42.0068 47.7921 41.5071 48.3876 40.845 48.748C40.9059 48.7714 40.9669 48.7916 41.0278 48.8117C42.5922 49.3215 44.2786 48.4799 44.7932 46.9308Z" fill="#FFE07D"/>
<path d="M5.24874 2.86884H30.216C31.7071 2.86884 32.916 4.06575 32.916 5.54217V24.1652C32.916 25.6416 31.7071 26.8386 30.216 26.8386H18.6346C17.952 26.8386 17.3987 27.3864 17.3987 28.0623V29.8368C17.3987 30.246 16.9215 30.4746 16.5975 30.2206L12.6201 27.1029C12.4017 26.9317 12.1314 26.8386 11.853 26.8386H5.24874C3.7576 26.8387 2.54877 25.6418 2.54877 24.1652V5.54217C2.54877 4.06575 3.7576 2.86884 5.24874 2.86884Z" fill="#ADE194"/>
<path d="M30.216 2.86884H27.516C29.0071 2.86884 30.216 4.06575 30.216 5.54217V24.1652C30.216 25.6416 29.0071 26.8386 27.516 26.8386H30.216C31.7071 26.8386 32.9159 25.6416 32.9159 24.1652V5.54217C32.9159 4.06575 31.7071 2.86884 30.216 2.86884Z" fill="#7DCE6F"/>
<path d="M19.6778 11.8033L20.3503 12.4692C20.4316 12.5496 20.496 12.6451 20.54 12.7502C20.584 12.8553 20.6066 12.968 20.6066 13.0817C20.6066 13.1955 20.584 13.3081 20.54 13.4132C20.496 13.5183 20.4316 13.6138 20.3503 13.6943L16.4149 17.5909C16.3337 17.6713 16.2372 17.7351 16.1311 17.7787C16.0249 17.8222 15.9112 17.8446 15.7963 17.8446C15.6814 17.8446 15.5676 17.8222 15.4615 17.7787C15.3553 17.7351 15.2589 17.6713 15.1776 17.5909L14.5051 16.9249C14.0224 16.4471 13.2398 16.4471 12.7572 16.9249L10.3604 19.2981C9.87775 19.776 9.87775 20.5508 10.3604 21.0287L11.2349 21.8946C12.9432 23.586 15.7127 23.586 17.421 21.8946L24.6969 14.6904C26.4052 12.999 26.4052 10.2568 24.6969 8.56533L23.8225 7.69948C23.3398 7.22159 22.5572 7.22159 22.0746 7.69948L19.6778 10.0726C19.1951 10.5505 19.1951 11.3253 19.6778 11.8033Z" fill="#F4FBFF"/>
</svg>
