<svg width="60" height="64" viewBox="0 0 60 64" fill="none" xmlns="http://www.w3.org/2000/svg">
<path d="M29.4127 63.6347C29.7961 63.7474 30.2039 63.7474 30.5873 63.6347C37.5675 61.6499 43.8624 57.7724 48.7753 52.4314C61.4869 38.4741 59.8222 19.5708 58.9308 13.7127C58.865 13.2592 58.6576 12.838 58.3382 12.5094C58.0188 12.1808 57.6038 11.9615 57.1523 11.8828C53.1023 11.1834 49.1348 10.0696 45.3125 8.55891C40.3108 6.58128 35.5955 3.94465 31.2917 0.718909C30.9197 0.437838 30.4662 0.285767 30 0.285767C29.5338 0.285767 29.0803 0.437838 28.7083 0.718909C24.4045 3.94465 19.6892 6.58128 14.6875 8.55891C10.8651 10.0692 6.89768 11.1827 2.84765 11.8817C2.39621 11.9604 1.98118 12.1797 1.66179 12.5083C1.34241 12.837 1.13502 13.2581 1.06922 13.7116C0.182184 19.5708 -1.48688 38.4741 11.2247 52.4303C16.1374 57.7717 22.4323 61.6496 29.4127 63.6347Z" fill="#2A747A"/>
<path d="M48.7797 52.4312C43.8659 57.7709 37.5707 61.6472 30.5906 63.6312C30.3998 63.6923 30.2003 63.7219 30 63.7187V0.28125C30.4661 0.284086 30.9189 0.437551 31.2906 0.71875C35.5956 3.9439 40.311 6.58115 45.3125 8.56094C49.1343 10.0677 53.0995 11.1818 57.1469 11.8859C57.5996 11.9614 58.0165 12.1791 58.3371 12.5076C58.6577 12.836 58.8652 13.2581 58.9297 13.7125C59.8156 19.575 61.4891 38.475 48.7797 52.4312Z" fill="#79C7D1"/>
<path d="M50.475 50.4188C49.95 51.0969 49.3812 51.775 48.7797 52.4313C47.6666 53.6481 46.4795 54.7951 45.225 55.8656C43.8687 54.1922 41.7141 53.525 37.6562 52.7813C45.0391 51.425 46.1438 50.3203 47.5 42.9375C48.2328 46.9078 48.8891 49.0625 50.475 50.4188Z" fill="#389BA3"/>
<path d="M30 61.5312C23.418 59.651 17.4813 55.9939 12.8412 50.9613C0.749834 37.6842 2.42874 19.3519 3.23155 14.0417C7.42465 13.313 11.5325 12.1586 15.4914 10.5964C20.6744 8.54537 25.5606 5.81204 30.0208 2.46875C34.4607 5.82002 39.3343 8.55412 44.5086 10.5964C48.4706 12.1601 52.5823 13.3142 56.7794 14.0406C57.5713 19.3464 59.2502 37.6842 47.1544 50.9613C42.5153 55.9929 36.5802 59.6499 30 61.5312Z" fill="#389BA3"/>
<path d="M49.0969 48.6359C48.4953 49.4234 47.85 50.2 47.1609 50.9546C46.0187 52.2053 44.7908 53.3748 43.4859 54.4546C41.6379 53.6069 39.6726 53.0427 37.6562 52.7812C45.0391 51.425 46.1437 50.3203 47.5 42.9375C47.7606 44.9028 48.2983 46.8213 49.0969 48.6359ZM24.5312 13.4062C17.1484 14.7625 16.0437 15.8671 14.6875 23.25C13.3859 16.1406 12.3141 14.85 5.64218 13.5593C9.00044 12.8479 12.2932 11.8564 15.4859 10.5953C15.9125 10.4203 16.3391 10.2453 16.7656 10.0593C18.1 11.9296 20.2766 12.6187 24.5312 13.4062Z" fill="#2A747A"/>
<path d="M30.6748 55.9465C30.2382 56.1007 29.7618 56.1007 29.3251 55.9465C24.2567 54.1988 19.6981 51.2271 16.0536 47.295C7.69405 38.1786 6.74468 26.2392 7.0903 19.0664C7.10913 18.5775 7.28493 18.1076 7.59165 17.7264C7.89838 17.3453 8.31972 17.073 8.79327 16.95C11.6095 16.2503 14.3771 15.3676 17.0784 14.3075C21.195 12.6917 25.1412 10.6719 28.8592 8.27763C29.1981 8.05509 29.5946 7.93652 30 7.93652C30.4054 7.93652 30.8019 8.05509 31.1408 8.27763C34.8593 10.6721 38.8058 12.6922 42.9226 14.3086C45.6238 15.3678 48.391 16.2502 51.2067 16.95C51.6803 17.073 52.1016 17.3453 52.4083 17.7264C52.7151 18.1076 52.8908 18.5775 52.9097 19.0664C53.2553 26.2392 52.3059 38.1786 43.9464 47.295C40.3019 51.2271 35.7432 54.1988 30.6748 55.9465Z" fill="#E0E8EF"/>
<path d="M24.5313 13.4063C17.1484 14.7625 16.0438 15.8672 14.6875 23.25C14.0094 19.5532 13.3859 17.4204 12.0188 16.0532C13.7359 15.5391 15.424 14.9558 17.0828 14.3032C18.4063 13.7891 19.7078 13.2313 20.9875 12.6297C21.9719 12.9032 23.1422 13.1547 24.5313 13.4063ZM43.9453 47.2907C40.3032 51.2235 35.7458 54.1955 30.6781 55.9422C30.4271 56.0373 30.158 56.0746 29.8906 56.0516C33.9747 54.2709 37.6436 51.6598 40.6641 48.3844C49.0203 39.2735 49.9719 27.3297 49.6328 20.1547C49.6118 19.6666 49.4347 19.1981 49.1275 18.8181C48.8204 18.4381 48.3994 18.1667 47.9266 18.0438C45.1081 17.3437 42.3387 16.4595 39.6359 15.3969C35.5197 13.7827 31.5738 11.7639 27.8563 9.37036C27.7258 9.28599 27.5864 9.21629 27.4406 9.16255C27.9219 8.87817 28.3922 8.58286 28.8625 8.27661C29.2013 8.05703 29.5963 7.94019 30 7.94019C30.4037 7.94019 30.7988 8.05703 31.1375 8.27661C34.855 10.6702 38.8009 12.6889 42.9172 14.3032C45.6199 15.3657 48.3894 16.2499 51.2078 16.95C51.6807 17.073 52.1016 17.3444 52.4088 17.7244C52.7159 18.1043 52.893 18.5728 52.9141 19.061C53.2531 26.236 52.3016 38.1797 43.9453 47.2907Z" fill="#C1D0DB"/>
<path d="M16.4659 32.501L17.8342 31.1043C18.0484 30.8825 18.3051 30.7061 18.5889 30.5857C18.8728 30.4652 19.178 30.4031 19.4863 30.4031C19.7947 30.4031 20.0999 30.4652 20.3837 30.5857C20.6675 30.7061 20.9242 30.8825 21.1384 31.1043L24.843 34.8865C25.0577 35.1073 25.3146 35.2829 25.5984 35.4027C25.8821 35.5226 26.187 35.5844 26.4951 35.5844C26.8031 35.5844 27.108 35.5226 27.3918 35.4027C27.6756 35.2829 27.9324 35.1073 28.1472 34.8865L38.8659 23.949C39.0801 23.7272 39.3368 23.5508 39.6207 23.4304C39.9045 23.3099 40.2097 23.2478 40.518 23.2478C40.8264 23.2478 41.1316 23.3099 41.4154 23.4304C41.6993 23.5508 41.9559 23.7272 42.1702 23.949L43.5384 25.3457C43.9775 25.7973 44.2232 26.4024 44.2232 27.0323C44.2232 27.6622 43.9775 28.2672 43.5384 28.7189L28.1472 44.4262C27.933 44.648 27.6763 44.8244 27.3925 44.9448C27.1086 45.0653 26.8034 45.1274 26.4951 45.1274C26.1867 45.1274 25.8815 45.0653 25.5977 44.9448C25.3139 44.8244 25.0572 44.648 24.843 44.4262L16.4659 35.8742C16.0268 35.4226 15.7812 34.8175 15.7812 34.1876C15.7812 33.5577 16.0268 32.9527 16.4659 32.501Z" fill="#C1D0DB"/>
<path d="M18.6534 31.4072L20.0217 30.0104C20.2359 29.7887 20.4926 29.6123 20.7764 29.4918C21.0603 29.3713 21.3655 29.3092 21.6738 29.3092C21.9822 29.3092 22.2874 29.3713 22.5712 29.4918C22.855 29.6123 23.1117 29.7887 23.3259 30.0104L27.0305 33.7926C27.2452 34.0135 27.5021 34.189 27.7859 34.3089C28.0696 34.4287 28.3745 34.4905 28.6826 34.4905C28.9906 34.4905 29.2955 34.4287 29.5793 34.3089C29.8631 34.189 30.1199 34.0135 30.3347 33.7926L41.0534 22.8551C41.2676 22.6333 41.5243 22.457 41.8082 22.3365C42.092 22.216 42.3972 22.1539 42.7055 22.1539C43.0139 22.1539 43.3191 22.216 43.6029 22.3365C43.8868 22.457 44.1434 22.6333 44.3577 22.8551L45.7259 24.2519C46.165 24.7035 46.4107 25.3085 46.4107 25.9384C46.4107 26.5683 46.165 27.1734 45.7259 27.625L30.3347 43.3323C30.1205 43.5541 29.8638 43.7305 29.58 43.851C29.2961 43.9714 28.9909 44.0335 28.6826 44.0335C28.3742 44.0335 28.069 43.9714 27.7852 43.851C27.5014 43.7305 27.2447 43.5541 27.0305 43.3323L18.6534 34.7803C18.2143 34.3287 17.9687 33.7236 17.9687 33.0937C17.9687 32.4638 18.2143 31.8588 18.6534 31.4072Z" fill="#389BA3"/>
<path d="M45.7172 27.625L43.9672 29.4078C44.1348 28.8284 44.2195 28.2282 44.2187 27.625C44.2186 26.617 43.9856 25.6227 43.5378 24.7196C43.0901 23.8165 42.4397 23.0291 41.6375 22.4188C42.0761 22.1884 42.5776 22.1065 43.0667 22.1853C43.5558 22.2642 44.0061 22.4997 44.35 22.8563L45.7172 24.2563C46.1581 24.7061 46.405 25.3108 46.405 25.9406C46.405 26.5705 46.1581 27.1752 45.7172 27.625Z" fill="#79C7D1"/>
<path d="M20.1563 34.1875C20.158 35.0316 20.2796 35.8712 20.5172 36.6812L18.6578 34.7781C18.2169 34.3283 17.97 33.7235 17.97 33.0937C17.97 32.4639 18.2169 31.8591 18.6578 31.4093L20.025 30.0093C20.4532 29.5746 21.0337 29.3236 21.6438 29.3093C20.6706 30.7497 20.1524 32.4491 20.1563 34.1875Z" fill="#2A747A"/>
<path d="M25.625 12.3125C18.2422 13.672 17.1408 14.7734 15.7812 22.1562C14.4217 14.7734 13.3203 13.672 5.9375 12.3125C13.3203 10.953 14.4217 9.85156 15.7812 2.46875C17.1408 9.85156 18.2422 10.953 25.625 12.3125Z" fill="#FFBB63"/>
<path d="M15.7813 17.4629C15.4564 16.2249 14.8083 15.0955 13.9033 14.1905C12.9982 13.2854 11.8688 12.6373 10.6308 12.3125C11.8688 11.9876 12.9982 11.3395 13.9033 10.4345C14.8083 9.52941 15.4564 8.40001 15.7813 7.16199C16.1061 8.40001 16.7542 9.52941 17.6593 10.4345C18.5643 11.3395 19.6937 11.9876 20.9317 12.3125C19.6937 12.6373 18.5643 13.2854 17.6593 14.1905C16.7542 15.0955 16.1061 16.2249 15.7813 17.4629Z" fill="#F49F69"/>
<path d="M15.7812 14.8281C15.1605 13.7969 14.2969 12.9332 13.2656 12.3125C14.2969 11.6918 15.1605 10.8281 15.7812 9.79688C16.402 10.8281 17.2656 11.6918 18.2969 12.3125C17.2656 12.9332 16.402 13.7969 15.7812 14.8281Z" fill="#D2824C"/>
<path d="M59.5312 51.6875C52.1484 53.047 51.047 54.1484 49.6875 61.5312C48.328 54.1484 47.2266 53.047 39.8438 51.6875C47.2266 50.328 48.328 49.2266 49.6875 41.8438C51.047 49.2266 52.1484 50.328 59.5312 51.6875Z" fill="#FFBB63"/>
<path d="M49.6875 56.8379C49.3627 55.5999 48.7145 54.4705 47.8095 53.5655C46.9044 52.6604 45.775 52.0123 44.537 51.6875C45.775 51.3626 46.9044 50.7145 47.8095 49.8095C48.7145 48.9044 49.3627 47.775 49.6875 46.537C50.0123 47.775 50.6604 48.9044 51.5655 49.8095C52.4705 50.7145 53.5999 51.3626 54.838 51.6875C53.5999 52.0123 52.4705 52.6604 51.5655 53.5655C50.6604 54.4705 50.0123 55.5999 49.6875 56.8379Z" fill="#F49F69"/>
<path d="M49.6875 54.2031C49.0668 53.1719 48.2031 52.3082 47.1719 51.6875C48.2031 51.0668 49.0668 50.2031 49.6875 49.1719C50.3082 50.2031 51.1719 51.0668 52.2031 51.6875C51.1719 52.3082 50.3082 53.1719 49.6875 54.2031Z" fill="#D2824C"/>
</svg>
