<svg width="70" height="64" viewBox="0 0 70 64" fill="none" xmlns="http://www.w3.org/2000/svg">
<path d="M69.9835 62.0352L64.4841 31.7368C64.457 31.5874 64.3971 31.4459 64.3087 31.3225C64.2203 31.199 64.1056 31.0967 63.9729 31.023L50.1312 23.3244C49.9547 23.2267 49.7534 23.1834 49.5523 23.1998L52.0706 55.6853L51.9862 55.723L68.5516 63.1546C68.7223 63.2313 68.9107 63.26 69.0964 63.2374C69.2822 63.2148 69.4582 63.1419 69.6056 63.0265C69.753 62.9115 69.8661 62.7583 69.9327 62.5835C69.9993 62.4088 70.0168 62.2192 69.9835 62.0352ZM35 30.6842L20.8435 23.3108C20.6762 23.2242 20.4883 23.1854 20.3004 23.1987C20.3495 23.1957 20.3988 23.196 20.4478 23.1998L17.9296 55.6853L34.5793 63.1548C34.7116 63.2141 34.855 63.2448 35 63.2449V30.6842Z" fill="#33B556"/>
<path d="M20.4476 23.1999C20.2467 23.1835 20.0453 23.2268 19.8688 23.3243L6.02696 31.023C5.89425 31.0967 5.77955 31.199 5.69115 31.3224C5.60275 31.4459 5.54285 31.5874 5.51577 31.7368L0.0165324 62.0352C-0.0168416 62.2192 0.000709098 62.4088 0.0672875 62.5835C0.133866 62.7583 0.246939 62.9115 0.394286 63.0266C0.541655 63.1419 0.717704 63.2148 0.903442 63.2374C1.08918 63.2599 1.27756 63.2314 1.44825 63.1547L17.9234 55.7636L20.4476 23.1999ZM49.5522 23.1992C49.4141 23.2094 49.2795 23.2474 49.1565 23.3111L35 30.6843V63.245H35.0001C35.1451 63.245 35.2885 63.2143 35.4208 63.1549L52.0706 55.6854L49.5522 23.1992Z" fill="#6AD67D"/>
<path d="M3.84918 40.9186L2.73206 47.0736L19.2742 38.3364L19.6582 33.3819L19.722 32.5602L3.84918 40.9186Z" fill="#FFDB56"/>
<path d="M19.4231 36.4153L19.2742 38.3365L2.73204 47.0736L0.0165324 62.0351C-0.0168416 62.2191 0.000709098 62.4088 0.0672875 62.5835C0.133866 62.7583 0.246939 62.9115 0.394286 63.0266C0.541655 63.1419 0.717704 63.2148 0.903442 63.2374C1.08918 63.2599 1.27756 63.2314 1.44825 63.1547L17.9234 55.7636L19.4231 36.4153Z" fill="#B1E3ED"/>
<path d="M35.0041 34.7454L19.722 32.5602L19.2742 38.3364L35 62.2183V53.5342L25.6161 38.7579L35.0041 39.8808V34.7454ZM62.8833 30.417L56.234 26.7186L49.9392 28.1894L50.0179 29.2061L50.3288 33.2166L62.8833 30.417Z" fill="#FFBB24"/>
<path d="M50.887 40.4187L50.2909 32.7284L49.9392 28.1895L35.0042 34.7454V39.8808L44.7599 35.6384L50.887 40.4187Z" fill="#FFDB56"/>
<path d="M69.9835 62.0351L68.6023 54.4245L50.3289 33.2166L50.8872 40.4186L69.6273 63.0074C69.7676 62.8916 69.8746 62.7404 69.9372 62.5695C69.9998 62.3987 70.0158 62.2142 69.9835 62.0351Z" fill="#FFBB24"/>
<path d="M35.0658 0.755005C27.1412 0.755005 20.6939 7.19692 20.6939 15.1151C20.6939 20.0132 23.0194 25.272 27.6059 30.7451C30.9745 34.765 34.2973 37.3505 34.4372 37.4587C34.6171 37.598 34.8383 37.6735 35.0659 37.6733C35.2935 37.6735 35.5147 37.5979 35.6947 37.4587C35.8344 37.3505 39.1574 34.765 42.526 30.7451C47.1125 25.272 49.4379 20.0133 49.4379 15.1151C49.4377 7.19692 42.9904 0.755005 35.0658 0.755005ZM40.3882 15.115C40.3882 18.052 38.0052 20.4331 35.0658 20.4331C32.1263 20.4331 29.7433 18.0521 29.7433 15.115C29.7433 12.1779 32.1263 9.7969 35.0658 9.7969C38.0052 9.7969 40.3882 12.178 40.3882 15.115Z" fill="#FF4A4A"/>
<path d="M35.0658 0.755005C34.4377 0.755005 33.8191 0.795747 33.212 0.874224C40.2644 1.78573 45.7303 7.82446 45.7303 15.1151C45.7303 20.0132 43.4048 25.272 38.8183 30.7451C36.652 33.3302 34.5062 35.3206 33.2122 36.442C33.9305 37.0644 34.3874 37.4201 34.4372 37.4587C34.6172 37.598 34.8383 37.6735 35.0659 37.6733C35.2935 37.6735 35.5147 37.5979 35.6947 37.4587C35.8344 37.3505 39.1574 34.765 42.526 30.7451C47.1125 25.272 49.438 20.0133 49.438 15.1151C49.4377 7.19692 42.9904 0.755005 35.0658 0.755005Z" fill="#E7343F"/>
<path d="M35.4209 63.1548L41.6122 60.3772L35.0001 53.5343V63.2449H35.0002C35.1452 63.245 35.2886 63.2142 35.4209 63.1548Z" fill="#FFDB56"/>
<path d="M64.484 31.7368C64.4569 31.5874 64.397 31.4459 64.3086 31.3224C64.2202 31.199 64.1055 31.0967 63.9728 31.0229L62.8831 30.4169L50.3287 33.2165L68.6019 54.4244L64.484 31.7368ZM34.9999 63.2448C35 63.2448 35 63.2448 34.9999 63.2448V62.2183L19.2742 38.3364L17.9293 55.6854L34.5791 63.1549C34.7114 63.2142 34.8548 63.2449 34.9999 63.2448Z" fill="#4DA9D9"/>
</svg>
