<svg width="50" height="70" viewBox="0 0 50 70" fill="none" xmlns="http://www.w3.org/2000/svg">
<path d="M46.737 30.5825C46.6607 30.4256 46.5276 30.0565 46.3616 29.5953C45.8079 28.0568 44.7479 28.2261 44.7479 28.2261C44.7479 28.2261 44.963 28.5863 44.6041 29.5204C44.496 30.1589 40.8456 34.9035 40.1853 33.681C40.1294 33.5776 40.1149 33.4571 40.1284 33.3404C40.3348 31.5556 40.4038 29.7287 40.3381 27.8859C40.0437 19.3675 36.9189 10.476 31.5395 3.48975C31.524 3.47003 31.5099 3.45172 31.4944 3.43342C31.4101 3.32427 31.3252 3.21555 31.2398 3.10727V3.10657C31.0102 2.81637 30.7767 2.52935 30.5392 2.24558C29.9239 1.51048 29.6115 2.13306 28.9413 1.44627C28.723 1.22236 28.34 1.35614 28.3048 1.66736C27.5274 8.66202 25.8908 11.3489 24.122 13.5204C21.8811 15.9197 18.4758 18.7379 17.0744 22.5091C16.3826 24.0531 15.2037 25.5419 14.8438 27.0605C14.7856 27.373 14.368 27.403 14.2028 27.217C12.8199 25.8394 11.7887 23.1337 11.3765 20.7291C11.2371 19.916 10.7267 20.5525 10.7392 19.8714C10.7364 19.6517 10.4717 19.5433 10.3154 19.6996C3.12637 26.8463 0.88419 36.7826 2.18962 47.2105C2.40226 48.9427 2.46929 50.6807 2.90866 52.3157C4.3635 57.9756 8.29653 62.3641 12.8322 65.5469C16.9197 68.4153 21.4004 70.3922 26.6784 69.9114L26.6732 69.9109C38.2939 69.0478 47.0436 60.4862 48.6804 48.9387C49.8401 41.6586 48.2607 34.935 46.737 30.5825Z" fill="#F9AF38"/>
<path d="M26.1406 69.9539C15.2057 70.6721 4.94397 62.9282 2.22327 52.3412C1.78391 50.7062 1.39101 48.8755 1.17837 47.1434C-0.127056 36.7155 3.56813 25.4314 10.7571 18.2846C10.9134 18.1283 11.1782 18.2367 11.181 18.4564C11.1683 19.138 11.2373 19.9153 11.3767 20.7293C5.64667 27.8507 2.83022 37.8378 3.99482 47.1434C4.20747 48.8755 4.60036 50.7062 5.03973 52.3412C7.52525 62.0129 16.3055 69.3131 26.1406 69.9539ZM40.4468 33.9018C40.4594 33.9032 40.4721 33.9047 40.4848 33.9047H40.4454L40.4468 33.9018ZM17.0744 20.9532C16.8576 21.3728 16.6576 21.7925 16.4717 22.2079L16.4703 22.2051C16.6562 21.7897 16.8562 21.3714 17.0744 20.9532Z" fill="#F48931"/>
<path d="M38.7076 43.2433C38.3971 42.4549 38.312 42.2208 38.1204 41.8291C38.0521 41.6895 37.8461 41.7165 37.8156 41.8686C37.7128 42.3814 37.6888 42.7368 37.4253 43.423C37.0127 44.5229 36.1458 45.4937 35.3055 46.2888C35.1938 46.3964 35.0334 46.3665 34.9503 46.2654C34.9123 46.1981 34.8906 46.133 34.8968 46.0812C35.6888 39.4852 33.5889 32.0288 29.2829 26.4366C29.2729 26.4236 29.2633 26.4124 29.2536 26.4004L29.1979 26.3284C28.6251 25.5926 28.1622 25.2038 27.5139 24.54C27.3704 24.393 27.1202 24.4803 27.0972 24.6847C26.5881 29.2657 25.7716 31.6846 24.6134 33.1065C23.4855 34.4922 22.328 34.8782 21.0348 36.8555C19.853 38.6638 19.2183 40.2842 18.8601 41.7694C18.8136 41.9617 18.0572 42.1268 17.9281 41.9768C17.5596 41.5507 17.1222 40.9374 16.7497 40.0972C16.5011 39.5363 16.3281 38.9801 16.2081 38.4578C16.0052 37.5737 15.7161 37.4199 15.7107 36.8722C15.709 36.728 15.5351 36.6575 15.4329 36.7597C10.4192 41.7439 8.93671 48.9472 10.3033 56.1273C12.2066 66.1277 19.8582 70.0147 25.4042 69.928C25.6467 69.9242 25.956 69.9732 26.2802 69.948C29.7041 69.6825 37.2657 67.9283 40.0395 58.3698C41.6273 52.8987 40.4366 47.6312 39.2927 44.3377C39.1466 43.9158 38.7076 43.2433 38.7076 43.2433Z" fill="#E16655"/>
<path d="M19.3487 38.8433L18.8601 40.1107C18.9995 39.6995 19.1614 39.2742 19.3487 38.8433ZM26.3783 69.9398C26.022 69.9792 25.6801 69.9708 25.4266 69.9891C19.8796 70.0468 11.5091 66.3488 9.6066 56.349C8.23922 49.1684 10.6585 41.1106 15.6718 36.1269C15.7746 36.0241 15.9478 36.0945 15.9493 36.2395C15.9549 36.7873 16.0056 37.5731 16.2084 38.4575C12.5751 43.4116 10.9712 50.2021 12.1414 56.349C13.8679 65.418 20.944 69.3385 26.3783 69.9398Z" fill="#FF8361"/>
<path d="M22.0907 62.7424C21.9156 62.7423 21.7434 62.6987 21.5893 62.6155C21.4353 62.5324 21.3044 62.4122 21.2083 62.2659C21.1122 62.1196 21.054 61.9517 21.0389 61.7773C21.0238 61.6029 21.0523 61.4275 21.1218 61.2668L27.1316 47.369C27.2428 47.112 27.4515 46.9096 27.7119 46.8065C27.9723 46.7033 28.263 46.7077 28.5201 46.8188C28.6474 46.8739 28.7626 46.9534 28.8592 47.053C28.9557 47.1526 29.0317 47.2702 29.0828 47.3991C29.1339 47.5281 29.1591 47.6658 29.157 47.8045C29.1548 47.9432 29.1253 48.0801 29.0703 48.2074L23.0605 62.1051C22.9787 62.2944 22.8433 62.4556 22.6709 62.5689C22.4986 62.6821 22.2969 62.7424 22.0907 62.7424ZM19.7102 54.1204L19.6733 54.1202C17.6635 54.0985 16.048 52.2576 16.0722 50.0165C16.0963 47.7887 17.7318 45.9911 19.7253 45.9911L19.7611 45.9912C20.765 46.0021 21.6945 46.4554 22.3787 47.2679C23.0242 48.0347 23.3736 49.0388 23.3622 50.0951C23.3508 51.1514 22.98 52.1476 22.3178 52.9003C21.625 53.688 20.7002 54.1204 19.7102 54.1204ZM19.7251 48.1034C18.886 48.1034 18.1959 48.9684 18.1844 50.0393C18.1729 51.1158 18.8509 51.999 19.6961 52.008C20.0764 52.0176 20.4431 51.8335 20.7317 51.5053C21.06 51.1321 21.2439 50.6232 21.25 50.0723C21.2559 49.5214 21.0828 49.0086 20.7629 48.6286C20.4812 48.2941 20.1175 48.1077 19.7384 48.1036L19.7251 48.1034ZM30.274 63.7808L30.2383 63.7807C28.2286 63.759 26.6131 61.918 26.6371 59.6769C26.6614 57.449 28.2967 55.6515 30.2902 55.6515L30.3261 55.6517C32.3358 55.6734 33.9513 57.5143 33.9273 59.7554V59.7555C33.903 61.9832 32.2675 63.7808 30.274 63.7808ZM30.2901 57.7639C29.4508 57.7639 28.761 58.6288 28.7495 59.6998C28.7378 60.7762 29.4159 61.6593 30.2611 61.6685C31.1012 61.6814 31.8034 60.8092 31.8149 59.7326V59.7327C31.8266 58.6561 31.1485 57.773 30.3033 57.7639H30.2901Z" fill="#F5FCFF"/>
<path d="M17.3626 6.09615C16.8771 8.66898 15.208 9.98778 14.4805 10.5725C14.4488 10.5979 14.412 10.6162 14.3725 10.626C14.3331 10.6359 14.292 10.637 14.2521 10.6294C14.2121 10.6218 14.1743 10.6056 14.1413 10.582C14.1082 10.5584 14.0807 10.5278 14.0606 10.4925C13.5951 9.68276 12.4909 7.89431 12.9761 5.32303C13.0859 4.74059 13.031 4.08576 13.2694 3.58288C14.0845 1.864 15.4523 0.647435 16.0152 0.194971C16.0469 0.16951 16.0837 0.151231 16.1231 0.141398C16.1626 0.131564 16.2037 0.13041 16.2436 0.138016C16.2835 0.145622 16.3213 0.161805 16.3544 0.185449C16.3875 0.209093 16.415 0.239633 16.4351 0.274959C16.8017 0.912604 17.6553 2.58839 17.7645 4.52766C17.7939 5.05068 17.4655 5.54989 17.3626 6.09615Z" fill="#E16655"/>
<path d="M17.6659 6.13863C17.1815 8.71146 15.1085 10.5731 14.3805 11.1576C14.2453 11.266 14.0467 11.228 13.9608 11.0787C13.4961 10.269 12.2442 7.78485 12.7301 5.21343C12.8498 4.57832 13.0666 3.98686 13.337 3.44751C13.4454 5.38523 14.2988 7.06102 14.665 7.69895C14.6852 7.73414 14.7128 7.76454 14.7458 7.78804C14.7789 7.81154 14.8167 7.8276 14.8566 7.83509C14.8965 7.84259 14.9375 7.84135 14.9769 7.83146C15.0163 7.82157 15.053 7.80327 15.0846 7.77781C15.6324 7.33844 16.9435 6.17384 17.7631 4.52762C17.794 5.05148 17.7687 5.59365 17.6659 6.13863Z" fill="#FF8361"/>
<path d="M48.5832 14.2517C49.0896 16.582 47.9094 18.4012 47.4566 19.1415C47.4368 19.1738 47.4107 19.2018 47.3798 19.2237C47.3489 19.2456 47.3139 19.2611 47.2769 19.2691C47.2398 19.2771 47.2016 19.2776 47.1643 19.2704C47.1271 19.2632 47.0918 19.2486 47.0604 19.2274C46.3412 18.7403 44.6074 17.6371 44.101 15.3063C44.0166 14.9182 43.7548 14.5035 43.7564 14.1227C43.7643 12.2175 44.6996 10.4968 45.0769 9.87972C45.0967 9.84741 45.1228 9.81944 45.1537 9.79751C45.1846 9.77557 45.2196 9.76012 45.2567 9.75209C45.2937 9.74407 45.332 9.74363 45.3692 9.7508C45.4064 9.75797 45.4418 9.7726 45.4732 9.79382C46.0212 10.1652 47.3782 11.1846 48.2167 12.6807C48.4783 13.1475 48.4628 13.6976 48.5832 14.2517Z" fill="#E16655"/>
<path d="M47.6076 19.6154C47.5877 19.6475 47.5615 19.6753 47.5307 19.6971C47.4998 19.7189 47.4649 19.7342 47.428 19.7422C47.391 19.7503 47.3529 19.7508 47.3158 19.7437C47.2786 19.7367 47.2433 19.7223 47.2119 19.7013C46.4923 19.214 44.3814 17.6101 43.8744 15.2795C43.7702 14.8007 43.7406 14.3205 43.7646 13.8557C44.6025 15.3527 45.9586 16.3722 46.5078 16.744C46.5392 16.765 46.5745 16.7794 46.6117 16.7864C46.6488 16.7935 46.6869 16.793 46.7239 16.785C46.7608 16.7769 46.7957 16.7616 46.8266 16.7398C46.8574 16.718 46.8836 16.6902 46.9035 16.6581C47.2626 16.0709 48.1301 14.4796 48.216 12.6813C48.4779 13.1474 48.6891 13.66 48.8102 14.2148C49.3158 16.5454 48.0596 18.8747 47.6076 19.6154ZM29.1979 26.3284C28.5811 29.6814 27.5009 31.636 26.5208 32.84C25.3928 34.2257 24.3493 34.675 23.0552 36.6521C22.4356 37.5998 21.8737 39.032 21.4681 40.1839C21.0724 41.3049 20.012 42.0541 18.822 42.0583L18.1109 42.0611C18.5925 41.8437 18.5393 40.6923 18.8602 40.1109C19.2797 38.9485 19.8265 37.679 20.5204 36.6521C21.8145 34.675 22.858 34.2257 23.986 32.84C25.1436 31.4177 26.4391 28.9505 26.9489 24.3696C26.9714 24.1654 27.2221 24.0781 27.3658 24.2245C27.9319 24.8061 28.4726 25.4173 28.981 26.0538C29.0542 26.1453 29.126 26.2369 29.1979 26.3284ZM39.2906 44.3382C39.2744 44.3685 39.2567 44.3999 39.2378 44.432C38.5293 45.6386 37.2119 46.3562 35.8127 46.3562H35.1603L35.1617 46.3548C35.2124 46.3506 35.2631 46.3309 35.3053 46.2886C36.146 45.4944 36.8304 44.3636 37.2431 43.2637C37.4599 42.6976 37.6092 42.1611 37.7134 41.702V41.6992C37.7345 41.6034 37.7542 41.5091 37.7726 41.4218C37.8035 41.2697 38.0091 41.2415 38.0767 41.3809C38.2697 41.7738 38.5513 42.385 38.8625 43.1722V43.1736C39.0019 43.5271 39.147 43.9172 39.2906 44.3382Z" fill="#FF8361"/>
<path d="M40.4848 33.9047H40.4454L40.4468 33.9019C40.4595 33.9033 40.4721 33.9047 40.4848 33.9047Z" fill="#F48931"/>
<path d="M27.9755 0.332522C27.1982 7.32718 25.2196 11.0942 23.4509 13.2657C21.2104 15.6653 17.8729 18.4367 16.4717 22.2079L16.4703 22.2051C16.1457 22.931 15.8489 23.712 15.5851 24.4939L15.5831 24.4907C15.5427 24.6125 15.5051 24.7343 15.4634 24.8554L15.4643 24.8572C15.2197 25.6154 15.0087 26.367 14.8438 27.0607C14.8128 27.2325 14.6706 27.3198 14.5227 27.331V27.3325H15.5123C16.7548 27.3325 17.8525 26.5192 18.2088 25.329C18.5336 24.2441 18.943 22.9724 19.2868 22.2051L19.2882 22.2079C20.6894 18.4367 24.0269 15.6653 26.2673 13.2657C27.8671 11.3012 29.64 8.0313 30.5385 2.2463C29.9245 1.51121 29.2824 0.798645 28.612 0.11143C28.3938 -0.112478 28.0107 0.0213034 27.9755 0.332522ZM44.5025 26.3706C44.3222 27.2761 44.0533 28.2492 43.6942 29.1829C43.6774 29.2819 43.5971 29.4883 43.4721 29.7595C43.4584 29.789 43.4446 29.8188 43.43 29.8497L43.4136 29.8839C43.3589 29.9987 43.2973 30.123 43.2301 30.2542L43.193 30.3265C42.4669 31.7313 41.1432 33.8609 40.4651 33.8694L40.4454 33.9047L40.5861 33.9028C41.4464 33.8921 42.2928 33.6843 43.0603 33.2954C43.8277 32.9065 44.4958 32.3468 45.0132 31.6594C45.594 30.8868 46.1466 30.0898 46.3613 29.5955C45.8079 28.0577 44.8897 25.4947 44.5025 26.3706Z" fill="#F48931"/>
</svg>
