<svg width="68" height="70" viewBox="0 0 68 70" fill="none" xmlns="http://www.w3.org/2000/svg">
<path d="M48.111 7.86108H38.1058V9.50581C38.1058 10.4408 37.3407 11.2059 36.4057 11.2059H16.0748C15.1398 11.2059 14.3747 10.4408 14.3747 9.50581V7.86108H4.3695C2.26021 7.86108 0.54425 9.57718 0.54425 11.6863V66.1746C0.54425 68.2839 2.26034 69.9999 4.3695 69.9999H48.1109C50.2202 69.9999 51.9361 68.2838 51.9361 66.1746V11.6863C51.9363 9.57718 50.2203 7.86108 48.111 7.86108Z" fill="#707487"/>
<path d="M3.36134 66.1748V11.6863C3.36134 9.57704 5.07743 7.86108 7.18659 7.86108H4.3695C2.26021 7.86108 0.54425 9.57718 0.54425 11.6863V66.1746C0.54425 68.2839 2.26034 69.9999 4.3695 69.9999H7.18659C5.0773 70 3.36134 68.2839 3.36134 66.1748Z" fill="#5B5D6E"/>
<path d="M47.686 53.4118V16.0009C47.686 15.5589 47.3066 15.2007 46.8386 15.2007H5.64194C5.17395 15.2007 4.79456 15.559 4.79456 16.0009V64.9495C4.79456 65.3915 5.17395 65.7497 5.64194 65.7497H35.3479L47.686 53.4118Z" fill="#E4EAF8"/>
<path d="M7.61163 64.9495V16.0009C7.61163 15.559 7.99103 15.2007 8.45901 15.2007H5.64206C5.17407 15.2007 4.79468 15.559 4.79468 16.0009V64.9495C4.79468 65.3915 5.17407 65.7497 5.64206 65.7497H8.45915C7.99102 65.7497 7.61163 65.3914 7.61163 64.9495Z" fill="#D8DCE5"/>
<path d="M33.6881 20.2518H18.7926C17.5074 20.2518 16.4618 19.2061 16.4618 17.9208V10.6425C16.4618 10.3623 16.5731 10.0936 16.7712 9.89548C16.9693 9.69736 17.238 9.58606 17.5182 9.58606C17.7984 9.58606 18.0671 9.69736 18.2652 9.89548C18.4633 10.0936 18.5746 10.3623 18.5746 10.6425V17.9207C18.5746 18.0409 18.6724 18.1388 18.7927 18.1388H33.6882C33.8084 18.1388 33.9063 18.0409 33.9063 17.9207V10.6425C33.9063 10.3623 34.0176 10.0936 34.2157 9.89548C34.4138 9.69736 34.6825 9.58606 34.9627 9.58606C35.2429 9.58606 35.5116 9.69736 35.7097 9.89548C35.9078 10.0936 36.0191 10.3623 36.0191 10.6425V17.9207C36.019 19.2061 34.9732 20.2518 33.6881 20.2518Z" fill="#00C3FF"/>
<path d="M29.6063 4.47412V1.7001C29.6063 0.765078 28.8411 0 27.9061 0H24.5746C23.6395 0 22.8745 0.765078 22.8745 1.7001V4.47398L29.6063 4.47412Z" fill="#D8DCE5"/>
<path d="M27.4435 0H24.5744C23.6393 0 22.8743 0.765078 22.8743 1.7001V4.47398H25.7433V1.7001C25.7434 0.765078 26.5085 0 27.4435 0Z" fill="#C3C8D1"/>
<path d="M36.4156 4.40356H16.065C15.0941 4.40356 14.3043 5.19339 14.3043 6.16423V9.51561C14.3043 10.4865 15.0941 11.2763 16.065 11.2763H36.4154C37.3863 11.2763 38.1761 10.4865 38.1761 9.51561V6.16423C38.1762 5.19339 37.3864 4.40356 36.4156 4.40356Z" fill="#E4EAF8"/>
<path d="M36.4156 8.45927H16.065C15.0941 8.45927 14.3043 7.66945 14.3043 6.69861V9.51556C14.3043 10.4864 15.0941 11.2762 16.065 11.2762H36.4154C37.3863 11.2762 38.1761 10.4864 38.1761 9.51556V6.69861C38.1762 7.66945 37.3864 8.45927 36.4156 8.45927ZM47.686 53.4117H36.1956C35.7276 53.4117 35.3482 53.7701 35.3482 54.2119V65.7495L47.686 53.4117Z" fill="#D8DCE5"/>
<path d="M38.1652 54.2121C38.1652 53.7701 38.5446 53.4119 39.0126 53.4119H36.1955C35.7275 53.4119 35.3481 53.7702 35.3481 54.2121V65.7496L38.1652 62.9325V54.2121Z" fill="#C3C8D1"/>
<path d="M60.9707 11.2059C58.5541 11.2083 56.4489 12.5353 55.3384 14.4991L55.3382 14.4987C55.3382 14.4987 54.9772 14.946 54.4971 14.9463C54.0172 14.947 53.6557 14.5009 53.6557 14.5009H53.6545C52.5398 12.5398 50.4331 11.2165 48.0159 11.2189C44.4385 11.2225 41.5408 14.1258 41.5446 17.7032C41.5545 27.05 51.8458 32.4961 54.0886 33.5719C54.0901 33.5724 54.4845 33.7231 54.9429 33.5719C57.1799 32.4933 67.4653 27.0258 67.4557 17.677C67.4519 14.0993 64.5491 11.2024 60.9707 11.2059Z" fill="#FF6161"/>
<path d="M44.3615 17.7032C44.3582 14.6081 46.5274 12.0194 49.4288 11.3746C48.9649 11.2711 48.491 11.2188 48.0157 11.2188C44.4383 11.2223 41.5405 14.1257 41.5444 17.703C41.5542 27.0498 51.8456 32.4959 54.0883 33.5719C54.0898 33.5724 54.4843 33.7231 54.9427 33.5717C55.1833 33.4556 55.5176 33.2886 55.9216 33.0716C52.5625 31.2759 44.3704 26.0422 44.3615 17.7032Z" fill="#DD4343"/>
<path d="M23.3901 48.62C23.1563 48.62 22.9291 48.5425 22.7441 48.3996C22.559 48.2567 22.4266 48.0565 22.3676 47.8303L18.8334 34.2823L17.3036 39.3086C17.2377 39.5253 17.1039 39.715 16.9219 39.8498C16.74 39.9847 16.5195 40.0574 16.293 40.0574H11.2348C10.9546 40.0574 10.6859 39.9461 10.4878 39.748C10.2897 39.5499 10.1784 39.2812 10.1784 39.001C10.1784 38.7208 10.2897 38.4521 10.4878 38.254C10.6859 38.0559 10.9546 37.9446 11.2348 37.9446H15.5103L17.901 30.0894C18.0388 29.637 18.461 29.3277 18.9329 29.3409C19.163 29.3455 19.3852 29.4251 19.5659 29.5676C19.7465 29.71 19.8757 29.9076 19.9338 30.1303L23.5603 44.032L25.5475 38.6163C25.622 38.4132 25.7571 38.2379 25.9345 38.114C26.1118 37.9902 26.3229 37.9238 26.5393 37.9238H30.0825C30.2983 37.9238 30.5089 37.9898 30.686 38.1131C30.8631 38.2364 30.9982 38.411 31.0731 38.6134L31.4736 39.695L33.4471 31.997C33.5039 31.7757 33.6309 31.5787 33.8091 31.4356C33.9873 31.2925 34.2071 31.2111 34.4355 31.2035C34.664 31.1955 34.8889 31.262 35.0763 31.393C35.2637 31.524 35.4034 31.7125 35.4742 31.9299L37.4418 37.9239H41.3005C41.5807 37.9239 41.8494 38.0352 42.0475 38.2333C42.2456 38.4315 42.3569 38.7002 42.3569 38.9804C42.3569 39.2605 42.2456 39.5292 42.0475 39.7274C41.8494 39.9255 41.5807 40.0368 41.3005 40.0368H36.6767C36.4541 40.0367 36.2373 39.9665 36.057 39.8359C35.8768 39.7054 35.7423 39.5213 35.6729 39.3098L34.5951 36.0267L32.6805 43.4955C32.6246 43.7135 32.5004 43.908 32.3262 44.0505C32.152 44.1931 31.9368 44.2762 31.712 44.2879C31.4872 44.2995 31.2645 44.2391 31.0765 44.1153C30.8885 43.9916 30.7449 43.811 30.6667 43.5999L29.3472 40.0366H27.277L24.3817 47.9275C24.3071 48.1305 24.1721 48.3058 23.9947 48.4296C23.8174 48.5534 23.6064 48.6199 23.3901 48.62Z" fill="#FF6161"/>
</svg>
